<?xml version="1.0" encoding="UTF-8"?>
<svg fill="#949494" width="30px" height="30px" version="1.1" viewBox="0 0 752 752" xmlns="http://www.w3.org/2000/svg">
 <g>
  <path d="m531.81 200.3h-35.52v-11.84c0-7.1055-5.6836-12.785-12.785-12.785-7.1055 0-12.785 5.6836-12.785 12.785v11.84h-189.91v-11.84c0-7.1055-5.6836-12.785-12.785-12.785-7.1055 0-12.785 5.6836-12.785 12.785v11.84h-35.52c-37.887 0-69.145 30.781-69.145 69.145v237.74c0 37.887 30.781 69.145 69.145 69.145h311.62c37.887 0 69.145-30.781 69.145-69.145l-0.003906-237.74c0.47266-37.887-30.312-69.141-68.672-69.141zm-311.62 25.57h35.52v11.84c0 7.1055 5.6836 12.785 12.785 12.785 7.1055 0 12.785-5.6836 12.785-12.785v-11.84h190.38v11.84c0 7.1055 5.6836 12.785 12.785 12.785 7.1055 0 12.785-5.6836 12.785-12.785v-11.84h35.52c24.152 0 43.57 19.418 43.57 43.57l0.003907 7.1055h-400.18v-7.1055c0-24.152 19.891-43.57 44.043-43.57zm311.62 324.88h-311.62c-24.152 0-43.57-19.418-43.57-43.57l0.003906-205.54h399.23v205.54c-0.003907 24.152-19.895 43.57-44.047 43.57z"/>
  <path d="m283.65 349.95h-45.938c-6.1562 0-11.367 5.2109-11.367 11.367v31.258c0 6.1562 5.2109 11.367 11.367 11.367h45.938c6.1562 0 11.367-5.2109 11.367-11.367v-31.258c0-6.1562-5.2109-11.367-11.367-11.367z"/>
  <path d="m398.73 349.95h-45.938c-6.1562 0-11.367 5.2109-11.367 11.367v31.258c0 6.1562 5.2109 11.367 11.367 11.367h45.938c6.1562 0 11.367-5.2109 11.367-11.367v-31.258c-0.003906-6.1562-4.7383-11.367-11.367-11.367z"/>
  <path d="m514.29 349.95h-45.938c-6.1562 0-11.367 5.2109-11.367 11.367v31.258c0 6.1562 5.2109 11.367 11.367 11.367h45.938c6.1562 0 11.367-5.2109 11.367-11.367v-31.258c0-6.1562-5.207-11.367-11.367-11.367z"/>
  <path d="m283.65 450.83h-45.938c-6.1562 0-11.367 5.2109-11.367 11.367v31.258c0 6.1562 5.2109 11.367 11.367 11.367h45.938c6.1562 0 11.367-5.2109 11.367-11.367v-31.258c0-6.1602-5.2109-11.367-11.367-11.367z"/>
  <path d="m398.73 450.83h-45.938c-6.1562 0-11.367 5.2109-11.367 11.367v31.258c0 6.1562 5.2109 11.367 11.367 11.367h45.938c6.1562 0 11.367-5.2109 11.367-11.367v-31.258c-0.003906-6.1602-4.7383-11.367-11.367-11.367z"/>
  <path d="m514.29 450.83h-45.938c-6.1562 0-11.367 5.2109-11.367 11.367v31.258c0 6.1562 5.2109 11.367 11.367 11.367h45.938c6.1562 0 11.367-5.2109 11.367-11.367v-31.258c0-6.1602-5.207-11.367-11.367-11.367z"/>
 </g>
</svg>
