<?xml version="1.0" encoding="UTF-8"?>
<svg fill="#3BB4FF" width="30px" height="30px" version="1.1" viewBox="0 0 752 752" xmlns="http://www.w3.org/2000/svg">
 <g>
  <path d="m514.13 376h-98.664v19.734c0 21.766-17.699 39.465-39.465 39.465s-39.465-17.699-39.465-39.465v-19.734h-98.66c-32.637 0-59.199 26.559-59.199 59.199v78.93c0 32.637 26.559 59.199 59.199 59.199h276.25c32.637 0 59.199-26.559 59.199-59.199v-78.93c0-32.637-26.562-59.199-59.199-59.199z"/>
  <path d="m446.15 313.49-21.906-32.836-28.512 19.004v-120.98h-39.465v120.98l-28.516-19.004-21.902 32.836 70.148 46.766z"/>
 </g>
</svg>
