<?xml version="1.0" encoding="UTF-8"?>
<svg fill="#949494" width="30px" height="30px" version="1.1" viewBox="0 0 752 752" xmlns="http://www.w3.org/2000/svg">
 <defs>
  <clipPath id="a">
   <path d="m153 139.21h446v473.58h-446z"/>
  </clipPath>
 </defs>
 <g clip-path="url(#a)">
  <path d="m567.79 235.72c-4.8281-8.3711-12.785-14.477-22.117-16.977-9.3359-2.5039-19.277-1.1953-27.645 3.6367l-22.281 12.848h-0.003906c-17.078-14.531-36.652-25.848-57.773-33.391v-25.629c0-20.117-16.262-37-36.379-37h-51.188c-20.117 0-36.379 16.863-36.379 37v25.629c-21.117 7.543-40.691 18.859-57.773 33.391l-22.27-12.848c-8.3711-4.832-18.316-6.1406-27.652-3.6406-9.332 2.5039-17.289 8.6094-22.121 16.98l-25.574 44.324c-4.832 8.3633-6.1445 18.309-3.6445 27.641s8.6055 17.289 16.973 22.121l22.199 12.828c-4.0156 22.059-4.0156 44.66 0 66.719l-22.199 12.828c-8.3711 4.832-14.477 12.793-16.977 22.125-2.5 9.3359-1.1875 19.281 3.6484 27.648l25.594 44.324c4.8281 8.3672 12.785 14.477 22.117 16.977 9.332 2.5039 19.277 1.1914 27.645-3.6367l22.281-12.848c17.074 14.531 36.645 25.844 57.754 33.391v25.629c0 20.117 16.262 37 36.379 37h51.188c20.117 0 36.379-16.863 36.379-37v-25.629c21.121-7.5469 40.695-18.859 57.773-33.391l22.266 12.848c8.3672 4.832 18.312 6.1406 27.648 3.6367 9.332-2.5 17.293-8.6055 22.121-16.977l25.586-44.324c4.832-8.3672 6.1445-18.309 3.6445-27.641-2.5-9.3359-8.6055-17.293-16.973-22.121l-22.199-12.828v-0.003907c4.0117-22.059 4.0117-44.656 0-66.715l22.199-12.828v-0.003906c8.3711-4.8281 14.477-12.789 16.977-22.121 2.5-9.3359 1.1875-19.281-3.6484-27.648zm-191.79 231.95c-24.312 0-47.629-9.6602-64.82-26.852-17.191-17.191-26.852-40.508-26.852-64.824 0-24.312 9.6602-47.629 26.852-64.82 17.191-17.191 40.508-26.852 64.82-26.852 24.316 0 47.633 9.6602 64.824 26.852 17.191 17.191 26.852 40.508 26.852 64.82 0 24.316-9.6602 47.633-26.852 64.824-17.191 17.191-40.508 26.852-64.824 26.852z"/>
 </g>
</svg>
