<?xml version="1.0" encoding="UTF-8"?>
<svg fill="#414141" width="30px" height="30px" version="1.1" viewBox="0 0 752 752" xmlns="http://www.w3.org/2000/svg">
 <defs>
  <clipPath id="b">
   <path d="m139.21 316h118.79v120h-118.79z"/>
  </clipPath>
  <clipPath id="a">
   <path d="m494 316h118.79v120h-118.79z"/>
  </clipPath>
 </defs>
 <g clip-path="url(#b)">
  <path d="m257.61 376c0 32.695-26.504 59.199-59.195 59.199-32.695 0-59.199-26.504-59.199-59.199 0-32.691 26.504-59.195 59.199-59.195 32.691 0 59.195 26.504 59.195 59.195"/>
 </g>
 <path d="m435.2 376c0 32.695-26.504 59.199-59.199 59.199-32.691 0-59.195-26.504-59.195-59.199 0-32.691 26.504-59.195 59.195-59.195 32.695 0 59.199 26.504 59.199 59.195"/>
 <g clip-path="url(#a)">
  <path d="m612.79 376c0 32.695-26.504 59.199-59.199 59.199s-59.195-26.504-59.195-59.199c0-32.691 26.5-59.195 59.195-59.195s59.199 26.504 59.199 59.195"/>
 </g>
</svg>
