<?xml version="1.0" encoding="UTF-8"?>
<svg width="752pt" height="752pt" version="1.1" viewBox="0 0 752 752" xmlns="http://www.w3.org/2000/svg">
 <defs>
  <clipPath id="a">
   <path d="m139.21 155h473.58v442h-473.58z"/>
  </clipPath>
 </defs>
 <g clip-path="url(#a)">
  <path d="m582.9 266.21c-14.438-24.957-33.68-46.801-56.613-64.266-22.938-17.469-49.109-30.215-77-37.5-1.5938-0.09375-3.1484-0.50391-4.5781-1.207-30.934-8.1992-63.289-9.5234-94.789-3.8711-31.5 5.6484-61.379 18.133-87.531 36.57-4.332 3.043-7.2734 7.6836-8.1797 12.895-0.91016 5.2148 0.28906 10.574 3.332 14.902s7.6797 7.2695 12.895 8.1797c5.2109 0.91016 10.574-0.28906 14.902-3.332 21.402-15.086 45.848-25.297 71.621-29.922 25.773-4.625 52.246-3.5508 77.559 3.1523 1.5938 0.089844 3.1484 0.5 4.5781 1.207 45.527 11.961 84.539 41.324 108.63 81.766 24.094 40.441 31.336 88.727 20.176 134.46s-39.832 85.25-79.844 110.05c-40.012 24.797-88.164 32.887-134.08 22.531-45.922-10.359-85.938-38.332-111.43-77.906-25.496-39.57-34.43-87.57-24.883-133.66l5.1914 9.1172c3.5312 6.1836 10.09 10.02 17.211 10.059 7.1211 0.042969 13.723-3.7148 17.324-9.8594s3.6562-13.742 0.14062-19.934l-29.391-51.637c-2.6172-4.5977-6.9531-7.9688-12.055-9.3711-5.1055-1.4023-10.555-0.71875-15.152 1.8984l-51.637 29.387v0.003906c-4.6055 2.6133-7.9805 6.9492-9.3828 12.055-1.4062 5.1055-0.72266 10.559 1.8945 15.16 2.6211 4.6016 6.9609 7.9727 12.066 9.3711 5.1055 1.3984 10.559 0.71484 15.156-1.9102l10.098-5.7461c-10.41 46.672-5.2891 95.465 14.586 138.95 19.871 43.492 53.406 79.301 95.504 101.98 42.094 22.676 90.445 30.984 137.7 23.652 47.25-7.3281 90.812-29.895 124.06-64.258 33.246-34.367 54.355-78.652 60.121-126.12 5.7617-47.469-4.1406-95.52-28.199-136.84z"/>
 </g>
 <path d="m394.3 251.48c-5.293 0-10.367 2.1016-14.109 5.8438-3.7383 3.7422-5.8398 8.8164-5.8398 14.105v104.94c0 1.3125 0.13281 2.6211 0.39062 3.9102 0.11719 0.58984 0.33594 1.1367 0.50781 1.707 0.29688 1.3984 0.85156 2.7266 1.6328 3.9258 0.27734 0.50781 0.5 1.0352 0.82812 1.5234l-0.003906-0.003907c0.73047 1.1016 1.5703 2.125 2.5 3.0586l48.477 48.477c5.043 5.0273 12.383 6.9844 19.258 5.1406 6.875-1.8477 12.246-7.2188 14.094-14.094s-0.11328-14.215-5.1406-19.258l-42.645-42.645v-96.68c-0.003906-5.2891-2.1055-10.363-5.8438-14.105-3.7422-3.7422-8.8164-5.8438-14.105-5.8438z"/>
</svg>
