<?xml version="1.0" encoding="UTF-8"?>
<svg fill="#949494" width="30px" height="30px" version="1.1" viewBox="0 0 752 752" xmlns="http://www.w3.org/2000/svg">
 <path d="m237.76 547.68c-0.050781 14.148 5.5312 27.734 15.508 37.766 9.9805 10.027 23.539 15.68 37.688 15.699 14.148 0.023437 27.723-5.582 37.734-15.578l169.97-170.16c10.043-10.039 15.652-23.684 15.578-37.887v-1.7539 0.003906c0.51953-14.723-5.1094-28.996-15.531-39.402l-170.06-169.73c-13.566-12.902-32.906-17.734-50.945-12.734-18.039 5-32.133 19.102-37.121 37.141-4.9883 18.043-0.14453 37.383 12.766 50.938l134.02 134.02-134.02 134.02c-9.9844 9.9844-15.59 23.531-15.582 37.652z"/>
</svg>
