<?xml version="1.0" encoding="UTF-8"?>
<svg fill="#949494" width="30px" height="30px" version="1.1" viewBox="0 0 752 752" xmlns="http://www.w3.org/2000/svg">
 <g>
  <path d="m539.35 215.92h-106.96c-4.4062-27.254-27.902-48.191-56.383-48.191-28.477 0-51.992 20.938-56.398 48.191h-106.95c-7.5117 0-13.605 6.0938-13.605 13.605 0 7.5117 6.0938 13.605 13.605 13.605h26.27v284.85c0 31.043 25.262 56.293 56.293 56.293h161.57c31.035 0 56.293-25.25 56.293-56.293v-284.86h26.27c7.5117 0 13.605-6.0938 13.605-13.605-0.003906-7.5117-6.0977-13.602-13.605-13.602zm-163.34-20.984c13.398 0 24.641 8.8594 28.531 20.98h-57.078c3.8945-12.121 15.148-20.98 28.547-20.98zm109.86 333.04c0 16.039-13.055 29.086-29.086 29.086h-161.57c-16.031 0-29.086-13.047-29.086-29.086v-284.85h219.73z"/>
  <path d="m312.56 494.05c7.5117 0 13.605-6.0938 13.605-13.605l-0.003907-160.71c0-7.5117-6.0938-13.605-13.605-13.605-7.5117 0-13.605 6.0938-13.605 13.605v160.71c0.003906 7.5117 6.0977 13.605 13.609 13.605z"/>
  <path d="m376.01 494.05c7.5117 0 13.605-6.0938 13.605-13.605l-0.003907-160.71c0-7.5117-6.0938-13.605-13.605-13.605-7.5117 0-13.605 6.0938-13.605 13.605v160.71c0.003906 7.5117 6.0977 13.605 13.609 13.605z"/>
  <path d="m439.44 494.05c7.5117 0 13.605-6.0938 13.605-13.605v-160.71c0-7.5117-6.0938-13.605-13.605-13.605-7.5117 0-13.605 6.0938-13.605 13.605v160.71c0.003906 7.5117 6.0977 13.605 13.605 13.605z"/>
 </g>
</svg>
